<svg width="41" height="42" fill="none" xmlns="http://www.w3.org/2000/svg">
  <path fill-rule="evenodd" clip-rule="evenodd" d="M2.887 5.147h.82c.906 0 1.36-.402 1.36-1.208 0-.805-.454-1.206-1.36-1.206h-.82v2.414Zm0 5.241H.416V.703h3.933c1.067 0 1.885.282 2.452.847.566.565.85 1.363.85 2.39 0 1.027-.283 1.824-.85 2.389-.567.565-1.385.847-2.452.847H2.887v3.213Zm15.379-5.357h.466c.488 0 .862-.102 1.122-.308.26-.205.39-.501.39-.885 0-.386-.13-.682-.39-.887-.26-.206-.635-.309-1.122-.309h-.466v2.39Zm5.432 5.357h-3.076l-2.356-3.725v3.725h-2.47V.703h3.843c.53 0 .992.079 1.387.237.395.159.72.375.977.65.256.273.453.596.58.949.13.36.195.746.195 1.157 0 .736-.174 1.333-.522 1.791-.35.46-.864.77-1.546.932l2.988 3.97Zm9.158-4.843c0 .385.07.741.215 1.066a2.617 2.617 0 0 0 1.43 1.407 2.68 2.68 0 0 0 1.027.199 2.69 2.69 0 0 0 1.884-.758A2.66 2.66 0 0 0 38 6.611c.142-.325.214-.68.214-1.066.004-.366-.07-.73-.214-1.066a2.68 2.68 0 0 0-2.47-1.605c-.362 0-.704.066-1.028.199a2.62 2.62 0 0 0-1.43 1.406c-.146.336-.219.7-.215 1.066Zm-2.584 0c0-.72.13-1.39.391-2.01.252-.607.62-1.16 1.084-1.625A4.946 4.946 0 0 1 33.404.825c.643-.261 1.35-.391 2.124-.391.765 0 1.47.13 2.118.39a5 5 0 0 1 1.67 1.086 4.98 4.98 0 0 1 1.09 1.625c.26.62.39 1.29.39 2.01 0 .72-.13 1.39-.39 2.011a4.976 4.976 0 0 1-1.09 1.624c-.478.47-1.046.84-1.67 1.086-.648.26-1.353.39-2.118.39-.773 0-1.48-.13-2.124-.39a4.921 4.921 0 0 1-2.74-2.71 5.138 5.138 0 0 1-.392-2.011M20.983 37.59v3.627h-2.47V37.59h-3.019v-2.486h8.508v2.486h-3.019Z" fill="#374146"/>
  <path fill-rule="evenodd" clip-rule="evenodd" d="M18.512 34.05h2.47v-2.518h-2.47v2.517ZM7.671 19.353c-.572-.71-1.277-1.066-2.118-1.066a2.54 2.54 0 0 0-1.84.764 2.584 2.584 0 0 0-.535.841 2.81 2.81 0 0 0-.196 1.053c0 .386.066.741.196 1.067.13.326.31.608.542.848.231.24.501.43.812.565.318.138.662.209 1.008.206.79 0 1.5-.342 2.13-1.028v2.98l-.251.09a7.259 7.259 0 0 1-1.059.301c-.32.063-.645.096-.97.096a4.917 4.917 0 0 1-3.472-1.444 5.307 5.307 0 0 1-1.104-1.632 5.054 5.054 0 0 1-.416-2.06c0-.746.136-1.428.41-2.05a5.002 5.002 0 0 1 4.595-3.038c.377 0 .75.04 1.115.122.365.082.75.208 1.153.38v3.005Zm10.292.501h3.567v-3.738H24v9.685h-2.47v-3.994h-3.566v3.994h-2.47v-9.685h2.47v3.738Zm18.681 2.35-1.11-3.224-1.108 3.225h2.218Zm.656 1.915h-3.53l-.567 1.682H30.57l3.617-9.685h2.698l3.617 9.685h-2.634L37.3 24.12ZM2.554 35.86h.466c.487 0 .861-.103 1.122-.308.26-.207.39-.501.39-.886 0-.386-.13-.681-.39-.886-.26-.206-.635-.31-1.122-.31h-.466v2.39Zm5.432 5.357H4.91l-2.357-3.725v3.725H.082V31.53h3.845c.53 0 .992.08 1.387.238.394.158.72.375.975.648.257.274.454.598.581.951.132.371.198.763.195 1.157 0 .736-.174 1.333-.523 1.791-.349.459-.863.769-1.544.932l2.987 3.969Zm26.307-4.65-3.466-5.036h2.95l1.764 2.646 1.752-2.646h2.95l-3.48 5.036v4.65h-2.47v-4.65Z" fill="#fff"/>
</svg>
