<svg width="27" height="26" fill="none" xmlns="http://www.w3.org/2000/svg">
  <mask id="a" style="mask-type:alpha" maskUnits="userSpaceOnUse" x="0" y="0" width="27" height="26">
    <path fill-rule="evenodd" clip-rule="evenodd" d="M26.082 13V0h-26v26h26V13Zm0 0-13 13-13-13 13-13 13 13Z" fill="#fff"/>
  </mask>
  <g mask="url(#a)">
    <path d="M26.082 13a13 13 0 0 1-13 13V13h13ZM.082 13a13 13 0 0 1 13-13v13h-13Z" fill="#DE5C6D"/>
    <path d="M13.082 26a13 13 0 0 1-13-13h13v13ZM13.082 0a13 13 0 0 1 13 13h-13V0Z" fill="#F6D7C4"/>
    <path fill="#DFA288" d="M13.805 0v26H12.36V0z"/>
    <path fill="#DFA288" d="M.082 12.278h26v1.444h-26z"/>
    <path d="M8.596 4.486a2.167 2.167 0 1 0-3.064 3.065l1.532-1.532 1.532-1.533ZM8.596 21.514a2.167 2.167 0 1 1-3.064-3.065l1.532 1.532 1.532 1.532ZM17.503 4.486a2.167 2.167 0 0 1 3.064 3.065l-1.532-1.532-1.532-1.533ZM17.568 21.514a2.167 2.167 0 1 0 3.064-3.065L19.1 19.981l-1.532 1.532Z" fill="#383547"/>
  </g>
  <path d="M5.53 7.55a2.167 2.167 0 0 0 3.065-3.064L7.063 6.02 5.53 7.55ZM5.53 18.45a2.167 2.167 0 1 1 3.065 3.064L7.063 19.98 5.53 18.45ZM20.567 7.55a2.166 2.166 0 1 1-3.064-3.064l1.532 1.533 1.532 1.532ZM20.633 18.45a2.167 2.167 0 1 0-3.064 3.064l1.532-1.533 1.532-1.532Z" fill="#E8A092"/>
</svg>
