<svg xmlns="http://www.w3.org/2000/svg" viewBox="0 0 24 24" width="24" height="24" fill="none"><path stroke="#77C5D5" stroke-linecap="round" stroke-linejoin="round" d="M4.191 11.431c4.651-2.026 7.753-3.362 9.304-4.007 4.431-1.843 5.352-2.163 5.952-2.174.132-.002.427.03.618.186a.672.672 0 0 1 .227.432c.022.124.048.407.027.628-.24 2.523-1.279 8.645-1.807 11.47-.224 1.196-.665 1.597-1.09 1.636-.927.085-1.63-.612-2.528-1.2-1.405-.921-2.198-1.494-3.56-2.392-1.576-1.038-.555-1.609.343-2.541.235-.244 4.317-3.957 4.396-4.294.01-.042.019-.2-.074-.282-.094-.083-.231-.055-.33-.032-.141.032-2.385 1.514-6.73 4.448-.637.437-1.214.65-1.73.639-.57-.012-1.666-.322-2.48-.587-1-.325-1.794-.496-1.725-1.048.036-.287.432-.581 1.187-.882Z" clip-rule="evenodd"/></svg>
