<svg width="25" height="21" viewBox="0 0 25 21" fill="none" xmlns="http://www.w3.org/2000/svg">
<path fill-rule="evenodd" clip-rule="evenodd" d="M2.58817 9.24205C8.78965 6.54017 12.925 4.75892 14.9941 3.89831C20.9018 1.44109 22.1293 1.01424 22.9295 1.00015C23.1054 0.99705 23.4989 1.04066 23.7538 1.24748C23.969 1.42211 24.0282 1.658 24.0565 1.82357C24.0849 1.98914 24.1202 2.36631 24.0921 2.66101C23.772 6.02476 22.3867 14.1877 21.682 17.9551C21.3838 19.5493 20.7966 20.0838 20.2282 20.1361C18.9928 20.2498 18.0548 19.3197 16.8582 18.5354C14.986 17.3081 13.9282 16.5441 12.1108 15.3464C10.0105 13.9624 11.3721 13.2017 12.569 11.9584C12.8823 11.6331 18.3253 6.68226 18.4306 6.23314C18.4438 6.17697 18.4561 5.9676 18.3317 5.85704C18.2073 5.74648 18.0237 5.78429 17.8912 5.81436C17.7034 5.85698 14.7124 7.83392 8.91818 11.7452C8.0692 12.3282 7.30021 12.6122 6.61122 12.5973C5.85167 12.5809 4.39059 12.1679 3.30444 11.8148C1.97222 11.3818 0.913397 11.1528 1.0056 10.4173C1.05362 10.0343 1.58114 9.64251 2.58817 9.24205Z" stroke="black" stroke-linecap="round" stroke-linejoin="round"/>
</svg>
