<svg xmlns="http://www.w3.org/2000/svg" width="109" height="109" fill="none"><path fill="#77C5D5" fill-rule="evenodd" d="M102.613 70.807V9.58c0-5.282-4.297-9.58-9.58-9.58H22.566c-5.282 0-9.58 4.298-9.58 9.58v3.406H9.58c-5.282 0-9.58 4.298-9.58 9.58 0 5.283 4.298 9.58 9.58 9.58h3.406V44.92H9.58C4.298 44.92 0 49.217 0 54.5c0 5.282 4.298 9.58 9.58 9.58h3.406v12.773H9.58c-5.282 0-9.58 4.298-9.58 9.58 0 5.283 4.298 9.58 9.58 9.58h3.406v3.194c0 2.545.979 4.97 2.756 6.829 1.827 1.911 4.25 2.964 6.824 2.964h64.08C98.972 109 109 98.877 109 86.434c0-6.077-2.438-11.594-6.387-15.627ZM9.58 25.76a3.197 3.197 0 0 1-3.193-3.194 3.197 3.197 0 0 1 3.193-3.193h6.6a3.197 3.197 0 0 1 3.193 3.193 3.197 3.197 0 0 1-3.193 3.194h-6.6Zm0 31.933A3.197 3.197 0 0 1 6.387 54.5a3.197 3.197 0 0 1 3.193-3.193h6.6a3.197 3.197 0 0 1 3.193 3.193 3.197 3.197 0 0 1-3.193 3.193h-6.6Zm6.6 31.934h-6.6a3.197 3.197 0 0 1-3.193-3.193A3.197 3.197 0 0 1 9.58 83.24h6.6a3.197 3.197 0 0 1 3.193 3.194 3.197 3.197 0 0 1-3.193 3.193Zm6.386 12.986c-1.7 0-3.193-1.592-3.193-3.406v-3.743c3.717-1.318 6.387-4.867 6.387-9.03 0-4.163-2.67-7.713-6.387-9.031V63.53c3.717-1.318 6.387-4.868 6.387-9.031s-2.67-7.713-6.387-9.03V31.596c3.717-1.318 6.387-4.867 6.387-9.03 0-4.164-2.67-7.713-6.387-9.031V9.58a3.197 3.197 0 0 1 3.193-3.193h70.467a3.197 3.197 0 0 1 3.194 3.193v56.66a22.22 22.22 0 0 0-9.58-2.16c-12.326 0-22.354 10.028-22.354 22.354 0 6.34 2.604 12.076 6.788 16.179H22.566Zm64.08 0c-8.804 0-15.966-7.258-15.966-16.18 0-8.804 7.162-15.966 15.966-15.966 8.805 0 15.967 7.162 15.967 15.967 0 8.921-7.162 16.179-15.966 16.179Zm0-76.853h-19.16a3.193 3.193 0 0 0 0 6.387h19.16a3.193 3.193 0 0 0 0-6.387Zm-19.16 25.547h19.16a3.193 3.193 0 0 1 0 6.386h-19.16a3.193 3.193 0 0 1 0-6.386ZM93.033 83.24H89.84v-3.193a3.193 3.193 0 1 0-6.387 0v6.387a3.193 3.193 0 0 0 3.194 3.193h6.386a3.193 3.193 0 0 0 0-6.387ZM52.242 20.31a3.193 3.193 0 1 1 4.516 4.515L43.984 37.598a3.182 3.182 0 0 1-2.258.935 3.183 3.183 0 0 1-2.258-.935l-7.284-7.285a3.193 3.193 0 1 1 4.516-4.516l5.026 5.027 10.516-10.515Zm4.516 25.546a3.193 3.193 0 0 0-4.516 0L41.726 56.371 36.7 51.344a3.193 3.193 0 0 0-4.516 4.516l7.285 7.285c.623.623 1.44.935 2.257.935.818 0 1.635-.311 2.258-.935L56.758 50.37a3.193 3.193 0 0 0 0-4.516Zm-4.516 25.547a3.193 3.193 0 1 1 4.516 4.516L43.984 88.692a3.182 3.182 0 0 1-2.258.935 3.183 3.183 0 0 1-2.258-.935l-7.284-7.285a3.193 3.193 0 1 1 4.516-4.516l5.026 5.027 10.516-10.516Z" clip-rule="evenodd"/></svg>