<svg xmlns="http://www.w3.org/2000/svg" width="178" height="190" fill="none"><path stroke="#77C5D5" stroke-linecap="round" stroke-linejoin="round" stroke-width="8" d="m80.04 143.452.603-.054a5.308 5.308 0 0 0 4.818-5.757L83.876 119.8a5.309 5.309 0 0 0-5.757-4.818l-.602.054a5.308 5.308 0 0 0-4.818 5.757l1.585 17.841a5.309 5.309 0 0 0 5.757 4.818ZM113.386 125.519l.602-.054a5.307 5.307 0 0 0 4.818-5.757l-1.088-12.252a5.307 5.307 0 0 0-5.757-4.818l-.602.053a5.307 5.307 0 0 0-4.818 5.757l1.088 12.253a5.309 5.309 0 0 0 5.757 4.818Z"/><path stroke="#77C5D5" stroke-linecap="round" stroke-linejoin="round" stroke-width="8" d="m110.901 89.73 17.112 14.319a5.309 5.309 0 0 1 .678 7.462l-.402.48a5.305 5.305 0 0 1-7.464.647l-2.912-2.437M121.134 83.688l9.929 8.31a5.308 5.308 0 0 1 .678 7.46l-.401.48a5.313 5.313 0 0 1-7.465.648l-8.473-7.09"/><path stroke="#77C5D5" stroke-linecap="round" stroke-linejoin="round" stroke-width="8" d="m114.779 78.37 10.79 9.03a5.309 5.309 0 0 0 7.464-.648l.402-.48a5.307 5.307 0 0 0-.734-7.395l-18.535-15.511-19.26 3.411M91.246 139.988l.602-.053a5.308 5.308 0 0 0 4.818-5.757l-2.583-29.083a5.309 5.309 0 0 0-5.758-4.818l-.602.054a5.308 5.308 0 0 0-4.818 5.757l2.584 29.082a5.308 5.308 0 0 0 5.757 4.818ZM102.091 132.895l.602-.054a5.309 5.309 0 0 0 4.818-5.757l-2.583-29.083a5.309 5.309 0 0 0-5.758-4.818l-.602.054a5.309 5.309 0 0 0-4.818 5.757l2.584 29.082a5.31 5.31 0 0 0 5.757 4.819ZM127.259 12.425 96.131 50.551l-21.606 2.516a13.207 13.207 0 0 0-8.597 4.624l-6.592 7.878a7.79 7.79 0 0 0-1.85 5.572l2.132 26.573a7.055 7.055 0 0 0 7.678 6.426 7 7 0 0 0 4.756-2.479 6.986 6.986 0 0 0 1.601-5.117L72.38 81.859a9.624 9.624 0 0 1 1.752-5.456 17.61 17.61 0 0 1 5.4-5.443M30.043 129.525l12.769-15.258a10.964 10.964 0 0 0 1.914-10.526v0a10.96 10.96 0 0 1 1.954-10.606l10.857-12.974M45.333 173.073l28.769-34.224M114.448 78.093l-24.045 3.178M138.832 65.63l-8.476 10.128"/></svg>