<svg xmlns="http://www.w3.org/2000/svg" width="162" height="100" fill="none"><path stroke="#DE6F7E" stroke-miterlimit="10" stroke-width="8" d="M140.2 35.233H36.242c-8.333 0-15.134-6.801-15.134-15.135 0-8.333 6.8-15.134 15.134-15.134h103.846c.56 0 .859.673.523 1.084-2.952 3.438-10.538 14.536.149 28.1.337.45 0 1.084-.56 1.084Z"/><path stroke="#DE6F7E" stroke-miterlimit="10" stroke-width="8" d="M156.305 65.5H52.347c-8.333 0-15.134-6.8-15.134-15.134 0-8.333 6.801-15.134 15.134-15.134h103.846c.561 0 .86.673.523 1.084-2.952 3.438-10.537 14.536.15 28.1.336.449 0 1.084-.561 1.084Z"/><path stroke="#DE6F7E" stroke-miterlimit="10" stroke-width="8" d="M140.2 95.733H36.242c-8.333 0-15.134-6.802-15.134-15.135s6.8-15.134 15.134-15.134h103.846c.56 0 .859.673.523 1.084-2.952 3.438-10.538 14.536.149 28.1.337.45 0 1.085-.56 1.085Z"/><path fill="#F8F8F8" d="M61.412 17.895h24.29v32.473l-12.145-6.726-12.145 6.726V17.895Z"/><path stroke="#DE6F7E" stroke-miterlimit="10" stroke-width="8" d="M60.419 17.895h24.289v32.473l-12.145-6.726-12.144 6.726V17.895ZM5.787 95.731H.667M10.943 95.731h25.299M93.9 80.635h7.063M91.808 17.896h36.359M43.005 17.896h7.1M85.904 80.635h-13.34"/></svg>