<svg xmlns="http://www.w3.org/2000/svg" width="128" height="129" fill="none"><path stroke="#EEB250" stroke-linecap="round" stroke-linejoin="round" stroke-width="8" d="M56.5 109c28.995 0 52.5-23.505 52.5-52.5S85.495 4 56.5 4 4 27.505 4 56.5 27.505 109 56.5 109ZM93.621 93.628l30.375 30.376"/><path fill="#EEB250" d="M60.507 64.98v-.888c0-6.832 9.907-9.566 9.907-18.926 0-7.106-5.398-12.504-13.665-12.504-7.106 0-11.41 4.031-13.256 9.634-.136.478.069.82.547 1.025l5.808 2.05c.478.205.888 0 1.093-.547.957-2.938 2.801-4.305 5.671-4.305 3.075 0 5.193 1.982 5.193 5.057 0 5.602-9.702 9.224-9.702 17.97v1.435c0 .478.341.82.82.82h6.764c.478 0 .82-.342.82-.82Zm-4.032 17.766c3.28 0 5.945-2.665 5.945-6.013a5.949 5.949 0 0 0-5.945-5.945c-3.348 0-6.012 2.665-6.012 5.945a5.978 5.978 0 0 0 6.012 6.013Z"/></svg>