<svg width="32" height="32" viewBox="0 0 32 32" fill="none" xmlns="http://www.w3.org/2000/svg">
<path d="M15.5075 28H16.5069C21.9318 28 24.6448 28 26.3296 26.3152C28.0144 24.6304 28 21.9184 28 16.5069V15.4931C28 10.0826 28 7.36961 26.3296 5.68481C24.6592 4 21.9318 4 16.5069 4H15.5075C10.0816 4 7.3696 4 5.6848 5.68481C4 7.36961 4 10.0806 4 15.4931V16.5069C4 21.9184 4 24.6304 5.6848 26.3152C7.3696 28 10.0816 28 15.5075 28Z" stroke="black" stroke-linecap="round" stroke-linejoin="round"/>
<path d="M16.879 21.3022C11.4675 21.3022 8.18334 17.5476 8.05566 11.3086H10.7965C10.8819 15.8916 12.967 17.8366 14.5654 18.2331V11.3086H17.1929V15.2628C18.7347 15.092 20.3475 13.2929 20.8909 11.3086H23.4742C23.0605 13.7499 21.3046 15.5489 20.0624 16.291C21.3046 16.891 23.3034 18.4616 24.0742 21.3022H21.2336C20.6336 19.4033 19.1629 17.9326 17.1929 17.7329V21.3022H16.879Z" stroke="black" stroke-linecap="round" stroke-linejoin="round"/>
</svg>
