<svg id="vk" xmlns="http://www.w3.org/2000/svg" viewBox="0 0 24 24" fill="none"><path stroke="currentColor" stroke-linecap="round" stroke-linejoin="round" d="M11.63 21h.75c4.069 0 6.104 0 7.367-1.264C21.011 18.473 21 16.44 21 12.38v-.76c0-4.058 0-6.093-1.253-7.356C18.494 3 16.45 3 12.38 3h-.75C7.562 3 5.528 3 4.265 4.264 3 5.527 3 7.56 3 11.62v.76c0 4.059 0 6.093 1.264 7.356C5.527 21 7.56 21 11.63 21Z"/><path fill="currentColor" d="M12.659 15.977c-4.059 0-6.522-2.816-6.618-7.496h2.056c.064 3.438 1.628 4.896 2.827 5.194V8.48h1.97v2.966c1.157-.128 2.366-1.477 2.774-2.966h1.937c-.31 1.831-1.627 3.18-2.559 3.737.932.45 2.431 1.628 3.01 3.759h-2.131c-.45-1.425-1.553-2.528-3.03-2.677v2.677h-.236Z"/></svg>
