<svg width="8" height="12" viewBox="0 0 8 12" fill="none" xmlns="http://www.w3.org/2000/svg">
<path d="M2.77819 8.24H3.78619C6.41019 8.24 7.94619 6.72 7.94619 4.528C7.94619 2.32 6.41019 0.799999 3.78619 0.799999H1.69019C1.59419 0.799999 1.53019 0.863999 1.53019 0.959999V7.024C1.53019 7.072 1.49819 7.104 1.45019 7.104H0.362188C0.266188 7.104 0.202188 7.168 0.202188 7.264V8.08C0.202188 8.176 0.266188 8.24 0.362188 8.24H1.45019C1.49819 8.24 1.53019 8.272 1.53019 8.32V9.504C1.53019 9.552 1.49819 9.584 1.45019 9.584H0.362188C0.266188 9.584 0.202188 9.648 0.202188 9.744V10.416C0.202188 10.512 0.266188 10.576 0.362188 10.576H1.45019C1.49819 10.576 1.53019 10.608 1.53019 10.656V11.84C1.53019 11.936 1.59419 12 1.69019 12H2.53819C2.63419 12 2.69819 11.936 2.69819 11.84V10.656C2.69819 10.608 2.73019 10.576 2.77819 10.576H4.74619C4.84219 10.576 4.90619 10.512 4.90619 10.416V9.744C4.90619 9.648 4.84219 9.584 4.74619 9.584H2.77819C2.73019 9.584 2.69819 9.552 2.69819 9.504V8.32C2.69819 8.272 2.73019 8.24 2.77819 8.24ZM2.77819 1.936H3.65819C5.59419 1.936 6.73019 2.848 6.73019 4.528C6.73019 6.224 5.61019 7.104 3.65819 7.104H2.77819C2.73019 7.104 2.69819 7.072 2.69819 7.024V2.016C2.69819 1.968 2.73019 1.936 2.77819 1.936Z" fill="black"/>
</svg>
